<mxfile host="app.diagrams.net" agent="Mozilla/5.0 (Windows NT 10.0; Win64; x64) AppleWebKit/537.36 (KHTML, like Gecko) Chrome/128.0.0.0 Safari/537.36" version="24.7.16">
  <diagram name="Page-1" id="d26UfMseyukkGzBzPg_0">
    <mxGraphModel dx="1185" dy="651" grid="1" gridSize="10" guides="1" tooltips="1" connect="1" arrows="1" fold="1" page="1" pageScale="1" pageWidth="850" pageHeight="1100" math="0" shadow="0">
      <root>
        <mxCell id="0" />
        <mxCell id="1" parent="0" />
        <mxCell id="122eKo_lQs6Pt1eIzUz_-1" value="Tone Marker" style="rounded=0;whiteSpace=wrap;html=1;fillColor=#f5f5f5;strokeColor=#666666;fontColor=#333333;" vertex="1" parent="1">
          <mxGeometry x="270" y="465" width="310" height="60" as="geometry" />
        </mxCell>
        <mxCell id="122eKo_lQs6Pt1eIzUz_-2" value="Female DB25" style="rounded=0;whiteSpace=wrap;html=1;fillColor=#dae8fc;strokeColor=#6c8ebf;" vertex="1" parent="1">
          <mxGeometry x="380" y="445" width="90" height="30" as="geometry" />
        </mxCell>
        <mxCell id="122eKo_lQs6Pt1eIzUz_-4" value="Micro-USB" style="rounded=0;whiteSpace=wrap;html=1;fillColor=#dae8fc;strokeColor=#6c8ebf;" vertex="1" parent="1">
          <mxGeometry x="380" y="515" width="90" height="30" as="geometry" />
        </mxCell>
        <mxCell id="122eKo_lQs6Pt1eIzUz_-5" value="Line-out" style="rounded=0;whiteSpace=wrap;html=1;fillColor=#dae8fc;strokeColor=#6c8ebf;" vertex="1" parent="1">
          <mxGeometry x="280" y="515" width="90" height="30" as="geometry" />
        </mxCell>
        <mxCell id="122eKo_lQs6Pt1eIzUz_-6" value="Line-in" style="rounded=0;whiteSpace=wrap;html=1;fillColor=#dae8fc;strokeColor=#6c8ebf;" vertex="1" parent="1">
          <mxGeometry x="480" y="515" width="90" height="30" as="geometry" />
        </mxCell>
        <mxCell id="122eKo_lQs6Pt1eIzUz_-7" value="USB Power Source" style="rounded=0;whiteSpace=wrap;html=1;fillColor=#f5f5f5;strokeColor=#666666;fontColor=#333333;" vertex="1" parent="1">
          <mxGeometry x="365" y="615" width="120" height="60" as="geometry" />
        </mxCell>
        <mxCell id="122eKo_lQs6Pt1eIzUz_-8" value="" style="endArrow=classic;html=1;rounded=0;exitX=0.5;exitY=0;exitDx=0;exitDy=0;entryX=0.5;entryY=1;entryDx=0;entryDy=0;" edge="1" parent="1" source="122eKo_lQs6Pt1eIzUz_-7" target="122eKo_lQs6Pt1eIzUz_-4">
          <mxGeometry width="50" height="50" relative="1" as="geometry">
            <mxPoint x="370" y="585" as="sourcePoint" />
            <mxPoint x="420" y="535" as="targetPoint" />
          </mxGeometry>
        </mxCell>
        <mxCell id="122eKo_lQs6Pt1eIzUz_-9" value="Marker Destination&lt;div&gt;(e.g. Biopac,&lt;/div&gt;&lt;div&gt;&amp;nbsp;Biosemi, etc.)&lt;/div&gt;" style="rounded=0;whiteSpace=wrap;html=1;fillColor=#dae8fc;strokeColor=#6c8ebf;" vertex="1" parent="1">
          <mxGeometry x="365" y="305" width="120" height="60" as="geometry" />
        </mxCell>
        <mxCell id="122eKo_lQs6Pt1eIzUz_-10" value="" style="endArrow=classic;html=1;rounded=0;entryX=0.5;entryY=1;entryDx=0;entryDy=0;exitX=0.5;exitY=0;exitDx=0;exitDy=0;" edge="1" parent="1" source="122eKo_lQs6Pt1eIzUz_-2" target="122eKo_lQs6Pt1eIzUz_-9">
          <mxGeometry width="50" height="50" relative="1" as="geometry">
            <mxPoint x="370" y="505" as="sourcePoint" />
            <mxPoint x="420" y="455" as="targetPoint" />
          </mxGeometry>
        </mxCell>
        <mxCell id="122eKo_lQs6Pt1eIzUz_-11" value="Headphones" style="rounded=0;whiteSpace=wrap;html=1;fillColor=#f5f5f5;strokeColor=#666666;fontColor=#333333;" vertex="1" parent="1">
          <mxGeometry x="220" y="615" width="120" height="60" as="geometry" />
        </mxCell>
        <mxCell id="122eKo_lQs6Pt1eIzUz_-13" value="" style="endArrow=classic;html=1;rounded=0;exitX=0.5;exitY=1;exitDx=0;exitDy=0;entryX=0.5;entryY=0;entryDx=0;entryDy=0;" edge="1" parent="1" source="122eKo_lQs6Pt1eIzUz_-5" target="122eKo_lQs6Pt1eIzUz_-11">
          <mxGeometry width="50" height="50" relative="1" as="geometry">
            <mxPoint x="370" y="585" as="sourcePoint" />
            <mxPoint x="420" y="535" as="targetPoint" />
          </mxGeometry>
        </mxCell>
        <mxCell id="122eKo_lQs6Pt1eIzUz_-17" style="edgeStyle=orthogonalEdgeStyle;rounded=0;orthogonalLoop=1;jettySize=auto;html=1;exitX=0.75;exitY=0;exitDx=0;exitDy=0;entryX=1;entryY=0.5;entryDx=0;entryDy=0;" edge="1" parent="1" source="122eKo_lQs6Pt1eIzUz_-14" target="122eKo_lQs6Pt1eIzUz_-9">
          <mxGeometry relative="1" as="geometry" />
        </mxCell>
        <mxCell id="122eKo_lQs6Pt1eIzUz_-14" value="Audio Splitter" style="rounded=0;whiteSpace=wrap;html=1;fillColor=#f5f5f5;strokeColor=#666666;fontColor=#333333;" vertex="1" parent="1">
          <mxGeometry x="510" y="615" width="120" height="60" as="geometry" />
        </mxCell>
        <mxCell id="122eKo_lQs6Pt1eIzUz_-15" value="" style="endArrow=classic;html=1;rounded=0;exitX=0.25;exitY=0;exitDx=0;exitDy=0;entryX=0.5;entryY=1;entryDx=0;entryDy=0;" edge="1" parent="1" source="122eKo_lQs6Pt1eIzUz_-14" target="122eKo_lQs6Pt1eIzUz_-6">
          <mxGeometry width="50" height="50" relative="1" as="geometry">
            <mxPoint x="370" y="585" as="sourcePoint" />
            <mxPoint x="420" y="535" as="targetPoint" />
          </mxGeometry>
        </mxCell>
        <mxCell id="122eKo_lQs6Pt1eIzUz_-19" style="edgeStyle=orthogonalEdgeStyle;rounded=0;orthogonalLoop=1;jettySize=auto;html=1;exitX=0.5;exitY=0;exitDx=0;exitDy=0;entryX=0.5;entryY=1;entryDx=0;entryDy=0;" edge="1" parent="1" source="122eKo_lQs6Pt1eIzUz_-18" target="122eKo_lQs6Pt1eIzUz_-14">
          <mxGeometry relative="1" as="geometry" />
        </mxCell>
        <mxCell id="122eKo_lQs6Pt1eIzUz_-18" value="Audio Source&lt;div&gt;(e.g. VR glasses,&lt;/div&gt;&lt;div&gt;PC, etc.)&lt;/div&gt;" style="rounded=0;whiteSpace=wrap;html=1;fillColor=#dae8fc;strokeColor=#6c8ebf;" vertex="1" parent="1">
          <mxGeometry x="510" y="735" width="120" height="60" as="geometry" />
        </mxCell>
      </root>
    </mxGraphModel>
  </diagram>
</mxfile>
